<mxfile host="app.diagrams.net" modified="2022-03-21T04:36:09.382Z" agent="5.0 (Macintosh; Intel Mac OS X 10_15_7) AppleWebKit/537.36 (KHTML, like Gecko) Chrome/99.0.4844.51 Safari/537.36" etag="yvb0jSJyPTqUjXO72KqT" version="17.1.2" type="github">
  <diagram id="_-KhlgRjDGJnE1wBygxN" name="第 1 页">
    <mxGraphModel dx="1158" dy="779" grid="1" gridSize="10" guides="1" tooltips="1" connect="1" arrows="1" fold="1" page="1" pageScale="1" pageWidth="850" pageHeight="1100" math="0" shadow="0">
      <root>
        <mxCell id="0" />
        <mxCell id="1" parent="0" />
        <mxCell id="_END5mWc-I215Ko7BJCz-1" value="查询标签信息流程" style="swimlane;childLayout=stackLayout;resizeParent=1;resizeParentMax=0;startSize=20;" vertex="1" parent="1">
          <mxGeometry x="100" y="120" width="640" height="560" as="geometry" />
        </mxCell>
        <mxCell id="_END5mWc-I215Ko7BJCz-2" value="应用层前端" style="swimlane;startSize=20;" vertex="1" parent="_END5mWc-I215Ko7BJCz-1">
          <mxGeometry y="20" width="130" height="540" as="geometry" />
        </mxCell>
        <mxCell id="_END5mWc-I215Ko7BJCz-3" value="前端查询请求" style="rounded=1;whiteSpace=wrap;html=1;" vertex="1" parent="_END5mWc-I215Ko7BJCz-2">
          <mxGeometry x="25" y="40" width="75" height="30" as="geometry" />
        </mxCell>
        <mxCell id="_END5mWc-I215Ko7BJCz-5" value="显示查询信息" style="rounded=1;whiteSpace=wrap;html=1;" vertex="1" parent="_END5mWc-I215Ko7BJCz-2">
          <mxGeometry x="25" y="390" width="75" height="30" as="geometry" />
        </mxCell>
        <mxCell id="_END5mWc-I215Ko7BJCz-4" value="显示查询失败" style="rounded=1;whiteSpace=wrap;html=1;" vertex="1" parent="_END5mWc-I215Ko7BJCz-2">
          <mxGeometry x="27.5" y="170" width="75" height="30" as="geometry" />
        </mxCell>
        <mxCell id="_END5mWc-I215Ko7BJCz-6" value="应用层服务" style="swimlane;startSize=20;" vertex="1" parent="_END5mWc-I215Ko7BJCz-1">
          <mxGeometry x="130" y="20" width="150" height="540" as="geometry" />
        </mxCell>
        <mxCell id="_END5mWc-I215Ko7BJCz-7" style="edgeStyle=orthogonalEdgeStyle;rounded=0;orthogonalLoop=1;jettySize=auto;html=1;exitX=0.5;exitY=1;exitDx=0;exitDy=0;entryX=0.5;entryY=0;entryDx=0;entryDy=0;" edge="1" parent="_END5mWc-I215Ko7BJCz-6" source="_END5mWc-I215Ko7BJCz-8" target="_END5mWc-I215Ko7BJCz-10">
          <mxGeometry relative="1" as="geometry" />
        </mxCell>
        <mxCell id="_END5mWc-I215Ko7BJCz-8" value="解析请求参数" style="rounded=0;whiteSpace=wrap;html=1;" vertex="1" parent="_END5mWc-I215Ko7BJCz-6">
          <mxGeometry x="30" y="40" width="80" height="30" as="geometry" />
        </mxCell>
        <mxCell id="_END5mWc-I215Ko7BJCz-52" style="edgeStyle=orthogonalEdgeStyle;rounded=0;orthogonalLoop=1;jettySize=auto;html=1;exitX=0.5;exitY=1;exitDx=0;exitDy=0;" edge="1" parent="_END5mWc-I215Ko7BJCz-6" source="_END5mWc-I215Ko7BJCz-10" target="_END5mWc-I215Ko7BJCz-51">
          <mxGeometry relative="1" as="geometry" />
        </mxCell>
        <mxCell id="_END5mWc-I215Ko7BJCz-54" value="否" style="edgeLabel;html=1;align=center;verticalAlign=middle;resizable=0;points=[];" vertex="1" connectable="0" parent="_END5mWc-I215Ko7BJCz-52">
          <mxGeometry x="-0.76" y="-2" relative="1" as="geometry">
            <mxPoint as="offset" />
          </mxGeometry>
        </mxCell>
        <mxCell id="_END5mWc-I215Ko7BJCz-10" value="判断参数合法" style="rhombus;whiteSpace=wrap;html=1;" vertex="1" parent="_END5mWc-I215Ko7BJCz-6">
          <mxGeometry x="35" y="90" width="75" height="40" as="geometry" />
        </mxCell>
        <mxCell id="_END5mWc-I215Ko7BJCz-49" value="返回结果Json" style="rounded=0;whiteSpace=wrap;html=1;" vertex="1" parent="_END5mWc-I215Ko7BJCz-6">
          <mxGeometry x="30" y="310" width="80" height="30" as="geometry" />
        </mxCell>
        <mxCell id="_END5mWc-I215Ko7BJCz-51" value="返回错误信息" style="rounded=0;whiteSpace=wrap;html=1;" vertex="1" parent="_END5mWc-I215Ko7BJCz-6">
          <mxGeometry x="32.5" y="170" width="80" height="30" as="geometry" />
        </mxCell>
        <mxCell id="_END5mWc-I215Ko7BJCz-12" value="存储层查询模块" style="swimlane;startSize=20;" vertex="1" parent="_END5mWc-I215Ko7BJCz-1">
          <mxGeometry x="280" y="20" width="120" height="540" as="geometry" />
        </mxCell>
        <mxCell id="_END5mWc-I215Ko7BJCz-42" style="edgeStyle=orthogonalEdgeStyle;rounded=0;orthogonalLoop=1;jettySize=auto;html=1;entryX=0.5;entryY=0;entryDx=0;entryDy=0;" edge="1" parent="_END5mWc-I215Ko7BJCz-12" source="_END5mWc-I215Ko7BJCz-14" target="_END5mWc-I215Ko7BJCz-41">
          <mxGeometry relative="1" as="geometry" />
        </mxCell>
        <mxCell id="_END5mWc-I215Ko7BJCz-58" value="是" style="edgeLabel;html=1;align=center;verticalAlign=middle;resizable=0;points=[];" vertex="1" connectable="0" parent="_END5mWc-I215Ko7BJCz-42">
          <mxGeometry x="-0.72" relative="1" as="geometry">
            <mxPoint as="offset" />
          </mxGeometry>
        </mxCell>
        <mxCell id="_END5mWc-I215Ko7BJCz-14" value="判断缓存是否命中" style="rhombus;whiteSpace=wrap;html=1;" vertex="1" parent="_END5mWc-I215Ko7BJCz-12">
          <mxGeometry x="22.5" y="90" width="75" height="40" as="geometry" />
        </mxCell>
        <mxCell id="_END5mWc-I215Ko7BJCz-45" style="edgeStyle=orthogonalEdgeStyle;rounded=0;orthogonalLoop=1;jettySize=auto;html=1;" edge="1" parent="_END5mWc-I215Ko7BJCz-12" source="_END5mWc-I215Ko7BJCz-41" target="_END5mWc-I215Ko7BJCz-44">
          <mxGeometry relative="1" as="geometry" />
        </mxCell>
        <mxCell id="_END5mWc-I215Ko7BJCz-41" value="查询对应缓存" style="rounded=0;whiteSpace=wrap;html=1;" vertex="1" parent="_END5mWc-I215Ko7BJCz-12">
          <mxGeometry x="20" y="160" width="80" height="30" as="geometry" />
        </mxCell>
        <mxCell id="_END5mWc-I215Ko7BJCz-48" style="edgeStyle=orthogonalEdgeStyle;rounded=0;orthogonalLoop=1;jettySize=auto;html=1;entryX=0.5;entryY=0;entryDx=0;entryDy=0;" edge="1" parent="_END5mWc-I215Ko7BJCz-12" source="_END5mWc-I215Ko7BJCz-44" target="_END5mWc-I215Ko7BJCz-47">
          <mxGeometry relative="1" as="geometry" />
        </mxCell>
        <mxCell id="_END5mWc-I215Ko7BJCz-44" value="返回标签信息" style="rounded=0;whiteSpace=wrap;html=1;" vertex="1" parent="_END5mWc-I215Ko7BJCz-12">
          <mxGeometry x="20" y="220" width="80" height="30" as="geometry" />
        </mxCell>
        <mxCell id="_END5mWc-I215Ko7BJCz-47" value="查询其他信息计算得到最终输出" style="rounded=0;whiteSpace=wrap;html=1;" vertex="1" parent="_END5mWc-I215Ko7BJCz-12">
          <mxGeometry x="20" y="300" width="80" height="50" as="geometry" />
        </mxCell>
        <mxCell id="_END5mWc-I215Ko7BJCz-16" value="标签组合查询模块" style="swimlane;startSize=20;" vertex="1" parent="_END5mWc-I215Ko7BJCz-1">
          <mxGeometry x="400" y="20" width="120" height="540" as="geometry" />
        </mxCell>
        <mxCell id="_END5mWc-I215Ko7BJCz-56" value="将条件查询参数组建成查询Deltalake语句" style="rounded=0;whiteSpace=wrap;html=1;" vertex="1" parent="_END5mWc-I215Ko7BJCz-16">
          <mxGeometry x="20" y="77.5" width="80" height="65" as="geometry" />
        </mxCell>
        <mxCell id="_END5mWc-I215Ko7BJCz-23" style="edgeStyle=orthogonalEdgeStyle;rounded=0;orthogonalLoop=1;jettySize=auto;html=1;exitX=1;exitY=0.5;exitDx=0;exitDy=0;" edge="1" parent="_END5mWc-I215Ko7BJCz-1" source="_END5mWc-I215Ko7BJCz-3" target="_END5mWc-I215Ko7BJCz-8">
          <mxGeometry relative="1" as="geometry" />
        </mxCell>
        <mxCell id="_END5mWc-I215Ko7BJCz-27" value="湖仓一体存储层" style="swimlane;startSize=20;" vertex="1" parent="_END5mWc-I215Ko7BJCz-1">
          <mxGeometry x="520" y="20" width="120" height="540" as="geometry" />
        </mxCell>
        <mxCell id="_END5mWc-I215Ko7BJCz-59" value="标签信息表中获取标签内容" style="rounded=0;whiteSpace=wrap;html=1;" vertex="1" parent="_END5mWc-I215Ko7BJCz-27">
          <mxGeometry x="20" y="95" width="80" height="30" as="geometry" />
        </mxCell>
        <mxCell id="_END5mWc-I215Ko7BJCz-40" value="是" style="edgeStyle=orthogonalEdgeStyle;rounded=0;orthogonalLoop=1;jettySize=auto;html=1;exitX=1;exitY=0.5;exitDx=0;exitDy=0;entryX=0;entryY=0.5;entryDx=0;entryDy=0;" edge="1" parent="_END5mWc-I215Ko7BJCz-1" source="_END5mWc-I215Ko7BJCz-10" target="_END5mWc-I215Ko7BJCz-14">
          <mxGeometry relative="1" as="geometry">
            <mxPoint x="297.5" y="130" as="targetPoint" />
          </mxGeometry>
        </mxCell>
        <mxCell id="_END5mWc-I215Ko7BJCz-50" style="edgeStyle=orthogonalEdgeStyle;rounded=0;orthogonalLoop=1;jettySize=auto;html=1;entryX=1;entryY=0.5;entryDx=0;entryDy=0;" edge="1" parent="_END5mWc-I215Ko7BJCz-1" source="_END5mWc-I215Ko7BJCz-47" target="_END5mWc-I215Ko7BJCz-49">
          <mxGeometry relative="1" as="geometry" />
        </mxCell>
        <mxCell id="_END5mWc-I215Ko7BJCz-53" style="edgeStyle=orthogonalEdgeStyle;rounded=0;orthogonalLoop=1;jettySize=auto;html=1;exitX=0;exitY=0.5;exitDx=0;exitDy=0;" edge="1" parent="_END5mWc-I215Ko7BJCz-1" source="_END5mWc-I215Ko7BJCz-51" target="_END5mWc-I215Ko7BJCz-4">
          <mxGeometry relative="1" as="geometry" />
        </mxCell>
        <mxCell id="_END5mWc-I215Ko7BJCz-55" style="edgeStyle=orthogonalEdgeStyle;rounded=0;orthogonalLoop=1;jettySize=auto;html=1;exitX=0;exitY=0.5;exitDx=0;exitDy=0;entryX=1;entryY=0.5;entryDx=0;entryDy=0;" edge="1" parent="_END5mWc-I215Ko7BJCz-1" source="_END5mWc-I215Ko7BJCz-49" target="_END5mWc-I215Ko7BJCz-5">
          <mxGeometry relative="1" as="geometry">
            <Array as="points">
              <mxPoint x="120" y="345" />
              <mxPoint x="120" y="425" />
            </Array>
          </mxGeometry>
        </mxCell>
        <mxCell id="_END5mWc-I215Ko7BJCz-57" value="否" style="edgeStyle=orthogonalEdgeStyle;rounded=0;orthogonalLoop=1;jettySize=auto;html=1;exitX=1;exitY=0.5;exitDx=0;exitDy=0;entryX=0;entryY=0.5;entryDx=0;entryDy=0;" edge="1" parent="_END5mWc-I215Ko7BJCz-1" source="_END5mWc-I215Ko7BJCz-14" target="_END5mWc-I215Ko7BJCz-56">
          <mxGeometry relative="1" as="geometry" />
        </mxCell>
        <mxCell id="_END5mWc-I215Ko7BJCz-60" style="edgeStyle=orthogonalEdgeStyle;rounded=0;orthogonalLoop=1;jettySize=auto;html=1;exitX=1;exitY=0.5;exitDx=0;exitDy=0;" edge="1" parent="_END5mWc-I215Ko7BJCz-1" source="_END5mWc-I215Ko7BJCz-56" target="_END5mWc-I215Ko7BJCz-59">
          <mxGeometry relative="1" as="geometry" />
        </mxCell>
      </root>
    </mxGraphModel>
  </diagram>
</mxfile>
